<svg width="225" height="72" viewBox="0 0 225 72" fill="none" xmlns="http://www.w3.org/2000/svg">
<path d="M0 70.08V1.92H28.224C31.168 1.92 33.856 2.528 36.288 3.744C38.784 4.96 40.928 6.624 42.72 8.736C44.512 10.784 45.92 13.088 46.944 15.648C47.968 18.144 48.48 20.704 48.48 23.328C48.48 27.04 47.648 30.56 45.984 33.888C44.384 37.152 42.112 39.808 39.168 41.856C36.224 43.904 32.768 44.928 28.8 44.928H6.72V70.08H0ZM6.72 38.976H28.512C31.2 38.976 33.536 38.24 35.52 36.768C37.504 35.296 39.04 33.376 40.128 31.008C41.216 28.64 41.76 26.08 41.76 23.328C41.76 20.512 41.12 17.92 39.84 15.552C38.56 13.184 36.864 11.328 34.752 9.984C32.704 8.576 30.432 7.872 27.936 7.872H6.72V38.976Z" fill="black"/>
<path d="M56.2627 70.08V20.064H62.7908V70.08H56.2627ZM56.2627 9.6V0H62.7908V9.6H56.2627Z" fill="black"/>
<path d="M75.345 0H81.873V58.752C81.873 61.248 82.321 62.88 83.217 63.648C84.113 64.416 85.201 64.8 86.481 64.8C87.633 64.8 88.785 64.672 89.937 64.416C91.089 64.16 92.081 63.904 92.913 63.648L94.065 68.928C92.849 69.44 91.345 69.856 89.553 70.176C87.825 70.496 86.321 70.656 85.041 70.656C82.097 70.656 79.729 69.792 77.937 68.064C76.209 66.336 75.345 63.968 75.345 60.96V0Z" fill="black"/>
<path d="M99.3893 0H105.917V58.752C105.917 61.248 106.365 62.88 107.261 63.648C108.157 64.416 109.245 64.8 110.525 64.8C111.677 64.8 112.829 64.672 113.981 64.416C115.133 64.16 116.125 63.904 116.957 63.648L118.109 68.928C116.893 69.44 115.389 69.856 113.597 70.176C111.869 70.496 110.365 70.656 109.085 70.656C106.141 70.656 103.773 69.792 101.981 68.064C100.253 66.336 99.3893 63.968 99.3893 60.96V0Z" fill="black"/>
<path d="M123.146 70.08V20.064H129.674V70.08H123.146ZM123.146 9.6V0H129.674V9.6H123.146Z" fill="black"/>
<path d="M163.252 71.04C159.668 71.04 156.34 70.368 153.268 69.024C150.26 67.616 147.636 65.728 145.396 63.36C143.22 60.928 141.524 58.176 140.308 55.104C139.092 51.968 138.484 48.672 138.484 45.216C138.484 41.632 139.092 38.304 140.308 35.232C141.524 32.096 143.252 29.344 145.492 26.976C147.732 24.544 150.356 22.656 153.364 21.312C156.436 19.904 159.764 19.2 163.348 19.2C166.932 19.2 170.228 19.904 173.236 21.312C176.244 22.656 178.868 24.544 181.108 26.976C183.348 29.344 185.076 32.096 186.292 35.232C187.508 38.304 188.116 41.632 188.116 45.216C188.116 48.672 187.508 51.968 186.292 55.104C185.076 58.176 183.348 60.928 181.108 63.36C178.932 65.728 176.308 67.616 173.236 69.024C170.228 70.368 166.9 71.04 163.252 71.04ZM145.108 45.312C145.108 49.024 145.908 52.416 147.508 55.488C149.172 58.496 151.38 60.896 154.132 62.688C156.884 64.416 159.924 65.28 163.252 65.28C166.58 65.28 169.62 64.384 172.372 62.592C175.124 60.8 177.332 58.368 178.996 55.296C180.66 52.16 181.492 48.768 181.492 45.12C181.492 41.408 180.66 38.016 178.996 34.944C177.332 31.872 175.124 29.44 172.372 27.648C169.62 25.856 166.58 24.96 163.252 24.96C159.924 24.96 156.884 25.888 154.132 27.744C151.444 29.6 149.268 32.064 147.604 35.136C145.94 38.144 145.108 41.536 145.108 45.312Z" fill="black"/>
<path d="M224.57 33.312V38.688H212.665V51.648H206.618V38.688H194.714V33.312H206.618V20.352H212.665V33.312H224.57Z" fill="black"/>
</svg>
